<svg width="80" height="80" viewBox="0 0 80 80" fill="none" xmlns="http://www.w3.org/2000/svg">
<g clip-path="url(#clip0_355_8670)">
<path d="M71 28.3951C71 27.6545 71 26.914 70.9971 26.1734C70.9943 25.5506 70.9856 24.9248 70.9684 24.3019C70.9311 22.9443 70.8507 21.5722 70.6096 20.2289C70.3656 18.8655 69.9638 17.5968 69.3323 16.3568C68.7123 15.1397 67.9029 14.026 66.9384 13.0587C65.9711 12.0943 64.8603 11.2848 63.6404 10.6648C62.4032 10.0333 61.1345 9.63435 59.7711 9.39037C58.4278 9.14926 57.0557 9.06889 55.6981 9.03157C55.0752 9.01435 54.4494 9.00861 53.8266 9.00287C53.086 9 52.3455 9 51.6049 9H28.3951C27.6545 9 26.914 9 26.1734 9.00287C25.5506 9.00574 24.9248 9.01435 24.3019 9.03157C22.9443 9.06889 21.5722 9.14926 20.2289 9.39037C18.8655 9.63435 17.5968 10.0362 16.3596 10.6648C15.1426 11.2848 14.026 12.0943 13.0616 13.0587C12.0943 14.026 11.2877 15.1369 10.6677 16.3568C10.0362 17.5968 9.63722 18.8655 9.39037 20.2289C9.14926 21.5722 9.06889 22.9443 9.03444 24.3019C9.01722 24.9248 9.00861 25.5506 9.00574 26.1734C9 26.914 9 27.6545 9 28.3951V51.6049C9 52.3455 9 53.086 9.00574 53.8266C9.00861 54.4494 9.01722 55.0752 9.03444 55.6981C9.07176 57.0557 9.15213 58.4278 9.39324 59.7711C9.63722 61.1345 10.0391 62.4061 10.6706 63.6432C11.2906 64.8603 12.1 65.974 13.0644 66.9384C14.0289 67.9057 15.1426 68.7152 16.3625 69.3352C17.5996 69.9667 18.8683 70.3656 20.2318 70.6096C21.5751 70.8507 22.9471 70.9311 24.3048 70.9684C24.9277 70.9856 25.5534 70.9914 26.1763 70.9971C26.9169 71 27.6574 71 28.398 71H51.6078C52.3483 71 53.0889 71 53.8294 70.9971C54.4523 70.9943 55.0781 70.9856 55.7009 70.9684C57.0586 70.9311 58.4306 70.8507 59.774 70.6096C61.1374 70.3656 62.4061 69.9638 63.6432 69.3352C64.8603 68.7152 65.974 67.9057 66.9413 66.9384C67.9086 65.974 68.7152 64.8603 69.3352 63.6432C69.9667 62.4032 70.3656 61.1345 70.6125 59.7711C70.8536 58.4278 70.934 57.0586 70.9713 55.6981C70.9885 55.0752 70.9943 54.4494 71 53.8266C71.0029 53.086 71.0029 52.3455 71.0029 51.6049V28.3951H71Z" fill="white"/>
<path d="M32.1415 59.7223V30.8779H30.9302L23.582 35.7432V36.9746L30.8469 32.2184H30.933V59.7252H32.1415V59.7223Z" fill="black"/>
<path d="M39.3203 30.8779V31.983H55.1648V32.0691L42.4404 59.7252H43.801L56.4191 32.0462V30.8779H39.3203Z" fill="black"/>
<path d="M20.2644 25.2204V18.9831H20.2874L22.753 24.5832H23.5711L26.0281 18.9831H26.0568V25.2204H26.8749V16.9595H26.008L23.1778 23.5785H23.1549L20.3161 16.9623H19.4492V25.2204H20.2644Z" fill="#FF0000"/>
<path d="M31.3244 18.7764C29.5993 18.7764 28.6406 20.0307 28.6406 21.73V22.3528C28.6406 24.0607 29.5907 25.3208 31.3244 25.3208C33.0553 25.3208 33.9996 24.0607 33.9996 22.3528V21.73C34.0025 20.0307 33.0438 18.7764 31.3244 18.7764ZM31.3244 19.5571C32.4496 19.5571 33.1098 20.3981 33.1098 21.773V22.3069C33.1098 23.6876 32.4496 24.5286 31.3244 24.5286C30.1906 24.5286 29.5333 23.6818 29.5333 22.3069V21.773C29.5333 20.401 30.1935 19.5571 31.3244 19.5571Z" fill="#FF0000"/>
<path d="M35.6641 25.2202H36.5539V21.3366C36.5539 20.4296 37.0505 19.5914 38.213 19.5914C39.2061 19.5914 39.8433 20.1913 39.8433 21.2735V25.2145H40.7331V21.1386C40.7331 19.6 39.7572 18.7705 38.4512 18.7705C37.4092 18.7705 36.8151 19.3159 36.5797 19.7407H36.5539V18.8738H35.6641V25.2202Z" fill="#FF0000"/>
<path d="M44.8304 18.7708C43.2545 18.7708 42.293 19.9993 42.293 21.7187V22.3674C42.293 24.1183 43.1828 25.3153 44.8304 25.3153C45.7403 25.3153 46.3919 24.856 46.7306 24.2303H46.7535V25.2177H47.5945V16.5176H46.7047V19.7869H46.6818C46.3746 19.2387 45.7202 18.7708 44.8304 18.7708ZM44.9107 19.5659C46.0359 19.5659 46.7277 20.45 46.7277 21.7589V22.3473C46.7277 23.7107 46.056 24.5259 44.9222 24.5259C43.9176 24.5259 43.1857 23.794 43.1857 22.3416V21.7675C43.1828 20.2864 43.9291 19.5659 44.9107 19.5659Z" fill="#FF0000"/>
<path d="M53.1032 24.3966H53.1262V25.2203H53.9931V20.8115C53.9931 19.5083 53.0372 18.7764 51.7169 18.7764C50.2472 18.7764 49.4894 19.5456 49.4148 20.6478H50.2558C50.3276 19.9762 50.807 19.5456 51.6795 19.5456C52.5808 19.5456 53.1032 20.025 53.1032 20.9148V21.5979H51.3782C49.9315 21.6037 49.168 22.3069 49.168 23.4034C49.168 24.5659 50.009 25.3237 51.2404 25.3237C52.2077 25.3208 52.799 24.9046 53.1032 24.3966ZM51.4499 24.5544C50.7352 24.5544 50.0865 24.1727 50.0865 23.3862C50.0865 22.7691 50.4797 22.327 51.4069 22.327H53.1032V23.1078C53.1032 23.9603 52.3943 24.5544 51.4499 24.5544Z" fill="#FF0000"/>
<path d="M60.5475 18.8799H59.5974L57.7862 24.1843H57.7546L55.9434 18.8799H54.9531L57.3212 25.321L57.2006 25.7085C57.0141 26.3629 56.6926 26.7447 55.9463 26.7447C55.8085 26.7447 55.5817 26.7275 55.4813 26.7074V27.4652C55.6391 27.4881 55.8745 27.514 56.0869 27.514C57.3212 27.514 57.746 26.6672 58.079 25.7515L58.2598 25.2779L60.5475 18.8799Z" fill="#FF0000"/>
</g>
<defs>
<clipPath id="clip0_355_8670">
<rect width="62" height="62" fill="white" transform="translate(9 9)"/>
</clipPath>
</defs>
</svg>
