<svg width="80" height="80" viewBox="0 0 80 80" fill="none" xmlns="http://www.w3.org/2000/svg">
<g clip-path="url(#clip0_355_8593)">
<path d="M63.4337 30.1529C59.3374 32.7059 56.8072 37.0824 56.8072 41.9451C56.8072 47.4157 60.0602 52.4 65 54.4667C64.0361 57.6275 62.5904 60.5451 60.7831 63.2196C58.1325 66.9882 55.3614 70.8784 51.2651 70.8784C47.1687 70.8784 45.9639 68.4471 41.1446 68.4471C36.4458 68.4471 34.759 71 30.9036 71C27.0482 71 24.3976 67.4745 21.3855 63.098C17.4096 57.0196 15.1205 49.9686 15 42.5529C15 30.5176 22.7108 24.0745 30.4217 24.0745C34.5181 24.0745 37.8916 26.749 40.4217 26.749C42.8313 26.749 46.6867 23.9529 51.2651 23.9529C56.0843 23.8314 60.6627 26.1412 63.4337 30.1529ZM49.0964 18.8471C51.1446 16.4157 52.2289 13.3765 52.3494 10.2157C52.3494 9.85098 52.3494 9.36471 52.2289 9C48.7349 9.36471 45.4819 11.0667 43.1928 13.7412C41.1446 16.051 39.9398 18.9686 39.8193 22.1294C39.8193 22.4941 39.8193 22.8588 39.9398 23.2235C40.1807 23.2235 40.5422 23.3451 40.7831 23.3451C44.0361 23.102 47.0482 21.4 49.0964 18.8471Z" fill="black"/>
</g>
<defs>
<clipPath id="clip0_355_8593">
<rect width="50" height="62" fill="white" transform="translate(15 9)"/>
</clipPath>
</defs>
</svg>
