<svg width="40" height="40" viewBox="0 0 40 40" fill="none" xmlns="http://www.w3.org/2000/svg">
<path d="M0 20C0 8.95431 8.95431 0 20 0C31.0457 0 40 8.95431 40 20C40 31.0457 31.0457 40 20 40C8.95431 40 0 31.0457 0 20Z" fill="#098551"/>
<path d="M28.3332 20.0007C28.3332 15.3983 24.6022 11.6673 19.9998 11.6673C15.3975 11.6673 11.6665 15.3983 11.6665 20.0007C11.6665 24.603 15.3975 28.334 19.9998 28.334C24.6022 28.334 28.3332 24.603 28.3332 20.0007Z" stroke="white" stroke-width="1.25"/>
<path d="M16.6665 20.4167L18.7498 22.5L23.3332 17.5" stroke="white" stroke-width="1.25" stroke-linecap="round" stroke-linejoin="round"/>
</svg>
