<svg width="80" height="80" viewBox="0 0 80 80" fill="none" xmlns="http://www.w3.org/2000/svg">
<path d="M45.3217 64.119C58.7466 64.1832 71 53.1704 71 39.7729C71 25.122 58.7466 14.9951 45.3217 15H33.768C20.1824 14.9951 9 25.125 9 39.7729C9 53.1733 20.1824 64.1833 33.768 64.119H45.3217Z" fill="#0079BE"/>
<path d="M33.8244 17.0312C21.4102 17.0351 11.3506 27.0977 11.3477 39.5169C11.3506 51.934 21.4101 61.9956 33.8244 61.9995C46.2416 61.9956 56.3033 51.934 56.305 39.5169C56.3032 27.0977 46.2416 17.0351 33.8244 17.0312ZM19.577 39.5169C19.5887 33.4482 23.3789 28.2732 28.7235 26.2167V52.814C23.3789 50.7587 19.5886 45.5865 19.577 39.5169ZM38.9235 52.8199V26.2158C44.27 28.2673 48.066 33.4453 48.0758 39.5169C48.066 45.5904 44.27 50.7645 38.9235 52.8199Z" fill="white"/>
</svg>
