<svg width="17" height="21" viewBox="0 0 17 21" fill="none" xmlns="http://www.w3.org/2000/svg">
<path d="M11.0405 0.5V2.98622C11.0405 4.73417 11.0405 5.60814 11.2545 6.44715C11.4685 7.28616 11.8879 8.05654 12.7267 9.59732L13.8633 11.6852C16.0008 15.6115 17.0696 17.5747 16.1928 19.03L16.1792 19.0522C15.2896 20.5 13.0264 20.5 8.5 20.5C3.97357 20.5 1.71036 20.5 0.820798 19.0522L0.807246 19.03C-0.0695533 17.5747 0.999184 15.6115 3.13666 11.6852L4.2733 9.59732C5.11209 8.05654 5.53149 7.28616 5.74548 6.44715C5.95947 5.60814 5.95947 4.73417 5.95947 2.98622V0.5" stroke="#171717"/>
<path d="M8.5 10.8182C6.59941 9.73427 5 8.90283 4 10.0562L1 16L0.5 18.5L2.5 20L8 20.5L15.5 20L16.5 18L16 15.5L13 10.1152C12.5 11.15 11 12.2439 8.5 10.8182Z" fill="#171717"/>
<path d="M5.5 14.502L5.50868 14.4996" stroke="white" stroke-width="2" stroke-linecap="round" stroke-linejoin="round"/>
<path d="M11.5 16.502L11.5087 16.4996" stroke="white" stroke-width="2" stroke-linecap="round" stroke-linejoin="round"/>
<path d="M4.5 0.5L12.5 0.5" stroke="#171717" stroke-linecap="round" stroke-linejoin="round"/>
</svg>
