<svg width="80" height="80" viewBox="0 0 80 80" fill="none" xmlns="http://www.w3.org/2000/svg">
<g clip-path="url(#clip0_355_8611)">
<path d="M13.2386 63.0002H23.1287V38.8288L9 28.0859V58.7199C9 61.0699 10.9115 63.0002 13.2386 63.0002Z" fill="#4285F4"/>
<path d="M56.9531 63.0002H66.8432C69.1703 63.0002 71.0818 61.0699 71.0818 58.7199V28.0859L56.9531 38.7449" fill="#34A853"/>
<path d="M56.9531 20.2804V38.8286L71.0818 28.1697V22.3786C71.0818 17.0911 65.0979 14.0697 60.9424 17.259" fill="#FBBC04"/>
<path d="M23.1289 38.8285V20.2803L40.0833 33.1213L56.9546 20.2803V38.8285L40.0002 51.5856" fill="#EA4335"/>
<path d="M9 22.3786V28.0858L23.1287 38.7447V20.2804L19.1394 17.259C14.9839 14.1536 9 17.1751 9 22.3786Z" fill="#C5221F"/>
</g>
<defs>
<clipPath id="clip0_355_8611">
<rect width="62" height="47" fill="white" transform="translate(9 16)"/>
</clipPath>
</defs>
</svg>
