<svg width="80" height="80" viewBox="0 0 80 80" fill="none" xmlns="http://www.w3.org/2000/svg">
<g clip-path="url(#clip0_355_8625)">
<path d="M44.0742 40.5L50.1183 47.4063L58.2456 52.5984L59.6628 40.5425L58.2456 28.7559L49.9624 33.3175L44.0742 40.5Z" fill="#00832D"/>
<path d="M9 51.479V61.7498C9 64.098 10.9025 65.9998 13.2514 65.9998H23.5257L25.6514 58.2365L23.5257 51.479L16.4754 49.354L9 51.479Z" fill="#0066DA"/>
<path d="M23.5257 15L9 29.5208L16.4754 31.6458L23.5257 29.5208L25.616 22.8554L23.5257 15Z" fill="#E94235"/>
<path d="M23.5257 29.521H9V51.4793H23.5257V29.521Z" fill="#2684FC"/>
<path d="M67.5296 21.1485L58.2473 28.756V52.5985L67.5721 60.2414C68.968 61.3323 71.0087 60.3371 71.0087 58.5627V22.7918C71.0087 20.9962 68.922 20.0116 67.5296 21.1485ZM44.0759 40.5002V51.4793H23.5273V66.0002H53.9959C56.3448 66.0002 58.2473 64.0983 58.2473 61.7502V52.5985L44.0759 40.5002Z" fill="#00AC47"/>
<path d="M53.9959 15H23.5273V29.5208H44.0759V40.5L58.2473 28.7629V19.25C58.2473 16.9019 56.3448 15 53.9959 15Z" fill="#FFBA00"/>
</g>
<defs>
<clipPath id="clip0_355_8625">
<rect width="62" height="51" fill="white" transform="translate(9 15)"/>
</clipPath>
</defs>
</svg>
