<svg width="80" height="80" viewBox="0 0 80 80" fill="none" xmlns="http://www.w3.org/2000/svg">
<g clip-path="url(#clip0_355_8579)">
<path d="M56.3142 23.6843L41.6301 22.0527L23.6826 23.6843L22.0508 40.0002L23.6823 56.3161L39.9982 58.3556L56.3142 56.3161L57.9457 39.5925L56.3142 23.6843Z" fill="white"/>
<path d="M30.3765 48.9982C29.157 48.1742 28.3125 46.9711 27.8516 45.3802L30.6825 44.2137C30.9395 45.1926 31.388 45.9512 32.0285 46.4897C32.6649 47.0282 33.4399 47.2932 34.3454 47.2932C35.2714 47.2932 36.0669 47.0117 36.7315 46.4488C37.3962 45.8858 37.731 45.1678 37.731 44.2992C37.731 43.4101 37.38 42.6838 36.6785 42.1212C35.977 41.5585 35.096 41.2767 34.0435 41.2767H32.4079V38.4746H33.8761C34.7816 38.4746 35.5445 38.23 36.1645 37.7406C36.7845 37.2511 37.0945 36.5821 37.0945 35.7296C37.0945 34.971 36.8171 34.3671 36.2625 33.9145C35.7079 33.4619 35.0061 33.2335 34.1536 33.2335C33.3215 33.2335 32.6606 33.4539 32.1711 33.8984C31.6816 34.343 31.3267 34.8895 31.1025 35.534L28.3004 34.3674C28.6715 33.315 29.3529 32.385 30.352 31.5815C31.3515 30.778 32.628 30.374 34.178 30.374C35.3241 30.374 36.3561 30.5944 37.27 31.039C38.1836 31.4835 38.9015 32.0995 39.4195 32.8825C39.9375 33.6696 40.1945 34.551 40.1945 35.5296C40.1945 36.5291 39.954 37.3732 39.4725 38.0667C38.9911 38.7601 38.3996 39.2902 37.6981 39.6616V39.8287C38.6241 40.2162 39.3786 40.8077 39.9741 41.6032C40.5656 42.3986 40.8632 43.3491 40.8632 44.4586C40.8632 45.5681 40.5817 46.5591 40.0188 47.4281C39.4558 48.297 38.6768 48.9821 37.6897 49.4796C36.6987 49.9772 35.5851 50.2301 34.3492 50.2301C32.9176 50.2342 31.5961 49.8222 30.3765 48.9982Z" fill="#1A73E8"/>
<path d="M47.7514 34.9503L44.6595 37.1978L43.1055 34.8403L48.6814 30.8184H50.8189V49.7894H47.7514V34.9503Z" fill="#1A73E8"/>
<path d="M56.3177 70.9999L71.0018 56.3158L63.6598 53.0527L56.3177 56.3158L53.0547 63.6578L56.3177 70.9999Z" fill="#EA4335"/>
<path d="M20.4219 63.658L23.6849 71H56.3165V56.3159H23.6849L20.4219 63.658Z" fill="#34A853"/>
<path d="M13.8946 9C11.1905 9 9 11.1905 9 13.8946V56.3156L16.342 59.5787L23.6841 56.3156V23.6841H56.3156L59.5787 16.342L56.3159 9H13.8946Z" fill="#4285F4"/>
<path d="M9 56.3159V66.1054C9 68.8098 11.1905 71 13.8946 71H23.6841V56.3159H9Z" fill="#188038"/>
<path d="M56.3164 23.684V56.3155H71.0005V23.684L63.6584 20.4209L56.3164 23.684Z" fill="#FBBC04"/>
<path d="M71.0005 23.6841V13.8946C71.0005 11.1901 68.81 9 66.1059 9H56.3164V23.6841H71.0005Z" fill="#1967D2"/>
</g>
<defs>
<clipPath id="clip0_355_8579">
<rect width="62" height="62" fill="white" transform="translate(9 9)"/>
</clipPath>
</defs>
</svg>
