<svg width="80" height="80" viewBox="0 0 80 80" fill="none" xmlns="http://www.w3.org/2000/svg">
<g clip-path="url(#clip0_367_8694)">
<path d="M70.7937 54.1998C70.7937 59.487 66.5022 63.7924 61.232 63.7924H9.20703V25.7996C9.20703 20.5124 13.4985 16.207 18.7688 16.207H70.7937V54.1998Z" fill="white"/>
<path d="M53.8516 44.4556H57.8043C57.9172 44.4556 58.1807 44.4179 58.2936 44.4179C59.0465 44.2668 59.6865 43.587 59.6865 42.6429C59.6865 41.7365 59.0465 41.0567 58.2936 40.8678C58.1807 40.8301 57.9548 40.8301 57.8043 40.8301H53.8516V44.4556Z" fill="url(#paint0_linear_367_8694)"/>
<path d="M57.3538 19.416C53.5894 19.416 50.5025 22.4751 50.5025 26.2895V33.4273H60.1772C60.403 33.4273 60.6665 33.4273 60.8548 33.465C63.0382 33.5783 64.6569 34.7113 64.6569 36.6751C64.6569 38.2236 63.5652 39.5454 61.5324 39.8097V39.8853C63.7534 40.0363 65.4474 41.2826 65.4474 43.2087C65.4474 45.2858 63.5652 46.6454 61.0806 46.6454H50.4648V60.6189H60.516C64.2804 60.6189 67.3673 57.5598 67.3673 53.7454V19.416H57.3538Z" fill="url(#paint1_linear_367_8694)"/>
<path d="M59.1971 37.1285C59.1971 36.2221 58.5571 35.6179 57.8043 35.5046C57.729 35.5046 57.5407 35.4668 57.4278 35.4668H53.8516V38.7902H57.4278C57.5407 38.7902 57.7666 38.7902 57.8043 38.7525C58.5571 38.6392 59.1971 38.0349 59.1971 37.1285Z" fill="url(#paint2_linear_367_8694)"/>
<path d="M19.4827 19.416C15.7183 19.416 12.6314 22.4751 12.6314 26.2895V43.2464C14.5513 44.1906 16.5464 44.7949 18.5416 44.7949C20.9132 44.7949 22.1931 43.3597 22.1931 41.3959V33.3895H28.0657V41.3581C28.0657 44.455 26.1458 46.9853 19.6333 46.9853C15.6806 46.9853 12.5938 46.1167 12.5938 46.1167V60.5811H22.6449C26.4093 60.5811 29.4962 57.522 29.4962 53.7077V19.416H19.4827Z" fill="url(#paint3_linear_367_8694)"/>
<path d="M38.4177 19.416C34.6533 19.416 31.5664 22.4751 31.5664 26.2895V35.2778C33.2981 33.8049 36.3096 32.8608 41.1658 33.0874C43.7633 33.2007 46.549 33.9182 46.549 33.9182V36.8262C45.1561 36.1086 43.4998 35.4666 41.354 35.3156C37.6648 35.0512 35.4438 36.864 35.4438 40.0363C35.4438 43.2464 37.6648 45.0592 41.354 44.7571C43.4998 44.606 45.1561 43.9262 46.549 43.2464V46.1544C46.549 46.1544 43.8009 46.872 41.1658 46.9853C36.3096 47.2119 33.2981 46.2677 31.5664 44.7949V60.6566H41.6175C45.382 60.6566 48.4689 57.5976 48.4689 53.7832V19.416H38.4177Z" fill="url(#paint4_linear_367_8694)"/>
</g>
<defs>
<linearGradient id="paint0_linear_367_8694" x1="50.4949" y1="42.6474" x2="67.4114" y2="42.6474" gradientUnits="userSpaceOnUse">
<stop stop-color="#007940"/>
<stop offset="0.2285" stop-color="#00873F"/>
<stop offset="0.7433" stop-color="#40A737"/>
<stop offset="1" stop-color="#5CB531"/>
</linearGradient>
<linearGradient id="paint1_linear_367_8694" x1="50.4957" y1="40.001" x2="67.4135" y2="40.001" gradientUnits="userSpaceOnUse">
<stop stop-color="#007940"/>
<stop offset="0.2285" stop-color="#00873F"/>
<stop offset="0.7433" stop-color="#40A737"/>
<stop offset="1" stop-color="#5CB531"/>
</linearGradient>
<linearGradient id="paint2_linear_367_8694" x1="50.4945" y1="37.1238" x2="67.4117" y2="37.1238" gradientUnits="userSpaceOnUse">
<stop stop-color="#007940"/>
<stop offset="0.2285" stop-color="#00873F"/>
<stop offset="0.7433" stop-color="#40A737"/>
<stop offset="1" stop-color="#5CB531"/>
</linearGradient>
<linearGradient id="paint3_linear_367_8694" x1="12.6234" y1="40.001" x2="29.8018" y2="40.001" gradientUnits="userSpaceOnUse">
<stop stop-color="#1F286F"/>
<stop offset="0.4751" stop-color="#004E94"/>
<stop offset="0.8261" stop-color="#0066B1"/>
<stop offset="1" stop-color="#006FBC"/>
</linearGradient>
<linearGradient id="paint4_linear_367_8694" x1="31.4691" y1="40.0009" x2="48.1533" y2="40.0009" gradientUnits="userSpaceOnUse">
<stop stop-color="#6C2C2F"/>
<stop offset="0.1735" stop-color="#882730"/>
<stop offset="0.5731" stop-color="#BE1833"/>
<stop offset="0.8585" stop-color="#DC0436"/>
<stop offset="1" stop-color="#E60039"/>
</linearGradient>
<clipPath id="clip0_367_8694">
<rect width="62" height="48" fill="white" transform="translate(9 16)"/>
</clipPath>
</defs>
</svg>
