<svg width="80" height="80" viewBox="0 0 80 80" fill="none" xmlns="http://www.w3.org/2000/svg">
<path d="M70.4088 52.0291V51.2852H70.2228L70.0058 51.7811L69.7888 51.2852H69.6028V52.0291H69.7268V51.4712L69.9438 51.9671H70.0988L70.3158 51.4712V52.0291H70.4088ZM69.1689 52.0291V51.4092H69.4169V51.2852H68.7969V51.4092H69.0449V52.0291H69.1689Z" fill="#00A2E5"/>
<path d="M48.368 55.2227H31.5977V25.0918H48.368V55.2227Z" fill="#7375CF"/>
<path d="M32.6831 40.1573C32.6831 34.0505 35.535 28.5947 39.9988 25.0918C36.744 22.5189 32.6211 21 28.1573 21C17.5867 21 9 29.5867 9 40.1573C9 50.7279 17.5867 59.3146 28.1573 59.3146C32.6211 59.3146 36.744 57.7956 39.9988 55.2227C35.535 51.7199 32.6831 46.2641 32.6831 40.1573Z" fill="#EB001B"/>
<path d="M70.9988 40.1573C70.9988 50.7279 62.4122 59.3146 51.8416 59.3146C47.3777 59.3146 43.2549 57.7956 40 55.2227C44.4638 51.7199 47.3157 46.2641 47.3157 40.1573C47.3157 34.0505 44.4638 28.5947 40 25.0918C43.2549 22.5189 47.3777 21 51.8416 21C62.4122 21 70.9988 29.5867 70.9988 40.1573Z" fill="#00A2E5"/>
</svg>
