<svg width="80" height="80" viewBox="0 0 80 80" fill="none" xmlns="http://www.w3.org/2000/svg">
<path d="M30.7812 25.0977H49.2277V55.2261H30.7812V25.0977Z" fill="#FF5F00"/>
<path d="M32.6805 40.1648C32.6783 37.2637 33.3359 34.4001 34.6037 31.7906C35.8716 29.1812 37.7163 26.8944 39.9984 25.1032C37.1719 22.8819 33.7775 21.5005 30.2031 21.1171C26.6287 20.7337 23.0185 21.3636 19.7852 22.9349C16.5518 24.5062 13.8258 26.9555 11.9186 30.0028C10.0114 33.0501 9 36.5725 9 40.1674C9 43.7623 10.0114 47.2847 11.9186 50.332C13.8258 53.3793 16.5518 55.8286 19.7852 57.3999C23.0185 58.9712 26.6287 59.6011 30.2031 59.2177C33.7775 58.8342 37.1719 57.4529 39.9984 55.2316C37.7156 53.4398 35.8704 51.1521 34.6026 48.5417C33.3347 45.9313 32.6774 43.0667 32.6805 40.1647V40.1648Z" fill="#EB001B"/>
<path d="M69.1679 52.038V51.4207H69.4341V51.293H68.8008V51.4207H69.0509V52.0381L69.1679 52.038ZM70.3974 52.038V51.2931H70.2058L69.9823 51.8252L69.7587 51.293H69.5672V52.038H69.7055V51.4739L69.9131 51.9583H70.0568L70.2644 51.4739V52.038H70.3974Z" fill="#F79E1B"/>
<path d="M71.0013 40.1645C71.0012 43.7597 69.9896 47.2824 68.0821 50.3298C66.1745 53.3772 63.4481 55.8264 60.2143 57.3975C56.9806 58.9685 53.37 59.5981 49.7954 59.2141C46.2208 58.8301 42.8263 57.4481 40 55.226C42.2812 53.4332 44.1254 51.1458 45.3936 48.5362C46.6618 45.9267 47.3207 43.0632 47.3207 40.1618C47.3207 37.2605 46.6618 34.397 45.3936 31.7874C44.1254 29.1779 42.2812 26.8904 40 25.0976C42.8263 22.8756 46.2208 21.4936 49.7954 21.1096C53.37 20.7256 56.9806 21.3551 60.2144 22.9262C63.4481 24.4973 66.1746 26.9465 68.0821 29.994C69.9896 33.0414 71.0013 36.564 71.0013 40.1592V40.1645Z" fill="#F79E1B"/>
</svg>
