<svg width="24" height="24" viewBox="0 0 24 24" fill="none" xmlns="http://www.w3.org/2000/svg">
<path d="M15.5 12C15.5 13.933 13.933 15.5 12 15.5C10.067 15.5 8.5 13.933 8.5 12C8.5 10.067 10.067 8.5 12 8.5C13.933 8.5 15.5 10.067 15.5 12Z" fill="white" stroke="#0052FF" stroke-width="1.25"/>
<path d="M20.79 13.6501C20.22 13.6401 19.72 14.0201 19.59 14.5801C19.43 15.2301 19.18 15.8401 18.86 16.4201C18.57 16.9401 18.65 17.6001 19.06 18.0201L19.16 18.1201C19.55 18.5201 19.55 19.1501 19.16 19.5501L18.69 20.0201C18.29 20.4101 17.66 20.4101 17.27 20.0201L17.16 19.9201C16.75 19.5001 16.09 19.4301 15.57 19.7201C14.98 20.0501 14.37 20.2901 13.72 20.4601C13.16 20.6001 12.78 21.1001 12.78 21.6801V21.8101C12.78 22.3701 12.33 22.8201 11.77 22.8201H11.09C10.53 22.8201 10.08 22.3701 10.08 21.8101V21.6901C10.09 21.1201 9.72 20.6101 9.16 20.4601C8.51 20.2901 7.9 20.0401 7.31 19.7101C6.79 19.4201 6.13 19.4801 5.72 19.9001L5.61 20.0101C5.21 20.4001 4.58 20.4001 4.19 20.0101L3.72 19.5401C3.33 19.1501 3.33 18.5201 3.72 18.1201L3.82 18.0201C4.24 17.5901 4.32 16.9201 4.02 16.4101C3.7 15.8301 3.45 15.2201 3.28 14.5601C3.16 14.0001 2.66 13.6201 2.08 13.6301H1.95C1.39 13.6301 0.94 13.1801 0.94 12.6201V11.9401C0.94 11.3801 1.39 10.9301 1.95 10.9301H2.09C2.66 10.9301 3.17 10.5601 3.3 10.0001C3.46 9.35008 3.71 8.74008 4.03 8.16008C4.32 7.64008 4.24 6.98008 3.83 6.56008L3.73 6.46008C3.34 6.06008 3.34 5.43008 3.73 5.04008L4.2 4.57008C4.6 4.18008 5.23 4.18008 5.62 4.57008L5.73 4.67008C6.14 5.09008 6.8 5.16008 7.32 4.87008C7.9 4.55008 8.52 4.30008 9.17 4.13008C9.73 3.99008 10.11 3.49008 10.11 2.91008V2.78008C10.11 2.22008 10.56 1.77008 11.12 1.77008H11.8C12.36 1.77008 12.81 2.22008 12.81 2.78008V2.90008C12.8 3.47008 13.17 3.98008 13.73 4.13008C14.38 4.30008 14.99 4.55008 15.58 4.87008C16.1 5.16008 16.76 5.09008 17.17 4.67008L17.28 4.56008C17.68 4.17008 18.31 4.17008 18.7 4.56008L19.17 5.03008C19.56 5.42008 19.56 6.05008 19.17 6.45008L19.07 6.55008C18.65 6.97008 18.57 7.64008 18.87 8.15008C19.19 8.73008 19.44 9.34008 19.61 9.99008C19.73 10.5601 20.23 10.9401 20.81 10.9301H20.94C21.5 10.9301 21.95 11.3801 21.95 11.9401V12.6201C21.95 13.1801 21.5 13.6301 20.94 13.6301L20.79 13.6501Z" fill="#0052FF" stroke="#0052FF" stroke-width="1.25" stroke-linecap="round" stroke-linejoin="round"/>
</svg>
