<svg width="40" height="40" viewBox="0 0 40 40" fill="none" xmlns="http://www.w3.org/2000/svg">
<path d="M0 20C0 8.95431 8.95431 0 20 0C31.0457 0 40 8.95431 40 20C40 31.0457 31.0457 40 20 40C8.95431 40 0 31.0457 0 20Z" fill="#098551"/>
<path d="M28.3332 19.9997C28.3332 15.3973 24.6022 11.6663 19.9998 11.6663C15.3975 11.6663 11.6665 15.3973 11.6665 19.9997C11.6665 24.602 15.3975 28.333 19.9998 28.333C24.6022 28.333 28.3332 24.602 28.3332 19.9997Z" stroke="white" stroke-width="1.25"/>
<path d="M16.6665 20.4167L18.7498 22.5L23.3332 17.5" stroke="white" stroke-width="1.25" stroke-linecap="round" stroke-linejoin="round"/>
</svg>
