<svg width="80" height="80" viewBox="0 0 80 80" fill="none" xmlns="http://www.w3.org/2000/svg">
<g clip-path="url(#clip0_355_8643)">
<path fill-rule="evenodd" clip-rule="evenodd" d="M62.1211 47.4984L71.0008 39.398L66.7947 31.0181L62.1211 47.4984Z" fill="#097939"/>
<path fill-rule="evenodd" clip-rule="evenodd" d="M59.1289 47.4984L68.0086 39.398L63.8025 31.0181L59.1289 47.4984Z" fill="#ED752E"/>
<path fill-rule="evenodd" clip-rule="evenodd" d="M16.6935 31.1115L12.9549 44.426L26.2273 44.519L29.873 31.1115H33.2377L28.8667 46.6984C28.6993 47.2936 28.0619 47.7772 27.4438 47.7772H10.4315C9.39983 47.7772 8.7885 46.9712 9.0675 45.9792L13.2364 31.1115H16.6935ZM57.7266 31.0185H61.0914L56.4178 47.7772H52.9582L57.7266 31.0185ZM33.6122 38.001L50.4366 37.908L51.5588 34.3696H34.4529L35.4809 31.1109L53.709 30.9435C54.8436 30.9329 55.5194 31.8115 55.2206 32.907L53.5032 39.1839C53.2037 40.2788 52.0399 41.1661 50.9053 41.1661H35.8554L34.0809 48.0562H30.8073L33.6122 38.001Z" fill="#747474"/>
</g>
<defs>
<clipPath id="clip0_355_8643">
<rect width="62" height="31" fill="white" transform="translate(9 24)"/>
</clipPath>
</defs>
</svg>
