<svg width="80" height="80" viewBox="0 0 80 80" fill="none" xmlns="http://www.w3.org/2000/svg">
<path fill-rule="evenodd" clip-rule="evenodd" d="M41.0648 36.3939C41.0295 39.1798 43.5504 40.7345 45.4493 41.6589C47.4005 42.6074 48.0558 43.2156 48.0484 44.0636C48.0335 45.3618 46.4919 45.9345 45.0491 45.9568C42.5319 45.9958 41.0686 45.278 39.905 44.735L38.9984 48.9733C40.1657 49.5109 42.3272 49.9796 44.5688 50C49.8301 50 53.2723 47.4056 53.2911 43.383C53.3116 38.2779 46.222 37.9952 46.2704 35.7132C46.2871 35.0214 46.948 34.283 48.3965 34.0952C49.1132 34.0005 51.0923 33.9278 53.3357 34.96L54.2163 30.8593C53.0099 30.4204 51.459 30 49.5285 30C44.5762 30 41.0929 32.6297 41.0648 36.3939ZM62.6781 30.3533C61.7174 30.3533 60.9075 30.9132 60.5463 31.7724L53.0304 49.6987H58.288L59.3342 46.8104H65.7591L66.3661 49.6987H71L66.9562 30.3533H62.6781ZM63.4134 35.5793L64.9307 42.8435H60.7753L63.4134 35.5793ZM34.6903 30.3533L30.5461 49.6987H35.556L39.6984 30.3533H34.6903ZM27.2787 30.3533L22.0639 43.5205L19.9545 32.3247C19.7069 31.075 18.7295 30.3533 17.644 30.3533H9.11919L9 30.9151C10.7501 31.2944 12.7384 31.9063 13.9429 32.561C14.6801 32.9608 14.8906 33.3104 15.1326 34.2607L19.1279 49.6987H24.4228L32.54 30.3533H27.2787Z" fill="#1A1F71"/>
</svg>
