<svg width="80" height="80" viewBox="0 0 80 80" fill="none" xmlns="http://www.w3.org/2000/svg">
<rect x="10" y="10" width="60" height="60" rx="12" fill="url(#paint0_linear_355_8690)"/>
<path d="M27.0916 44.7134H19.3404C18.7968 44.7134 18.311 44.3892 18.1025 43.887C18.0007 43.6421 17.974 43.3725 18.0257 43.1124C18.0775 42.8523 18.2053 42.6135 18.3931 42.4262L23.7618 37.0575H19.9139C18.857 37.0575 18 36.2005 18 35.1437H25.1482C25.6919 35.1437 26.1777 35.4686 26.3855 35.9709C26.4876 36.2155 26.5146 36.485 26.463 36.745C26.4114 37.005 26.2835 37.2438 26.0958 37.4308L20.7271 42.7996H25.1773C26.2348 42.7996 27.0916 43.6565 27.0916 44.7134ZM61.3515 38.7322C61.3515 36.6748 59.6767 35 57.6192 35C56.5186 35 55.5273 35.4795 54.8438 36.2404C54.1603 35.4797 53.169 35 52.0685 35C50.011 35 48.3362 36.6747 48.3362 38.7322V44.7134C49.3931 44.7134 50.25 43.8564 50.25 42.7996V38.7322C50.25 37.7301 51.0663 36.9146 52.0685 36.9146C53.0714 36.9146 53.887 37.7301 53.887 38.7322V42.7996C53.887 43.8564 54.7439 44.7134 55.8008 44.7134V38.7322C55.8008 37.7301 56.6162 36.9146 57.6192 36.9146C58.6214 36.9146 59.4377 37.7301 59.4377 38.7322V42.7996C59.4377 43.8564 60.2938 44.7134 61.3515 44.7134V38.7322ZM47.3793 39.9289C47.3793 42.6505 45.1726 44.8572 42.4512 44.8572C39.729 44.8572 37.5222 42.6505 37.5222 39.9289C37.5222 37.2067 39.7289 35 42.4512 35C45.1726 35 47.3793 37.2067 47.3793 39.9289ZM45.4655 39.9289C45.4655 38.2636 44.1157 36.9145 42.4512 36.9145C40.7858 36.9145 39.4368 38.2635 39.4368 39.9289C39.4368 41.5936 40.7858 42.9434 42.4512 42.9434C44.1157 42.9434 45.4655 41.5936 45.4655 39.9289ZM36.7567 39.9289C36.7567 42.6505 34.5508 44.8572 31.8286 44.8572C29.1063 44.8572 26.9003 42.6505 26.9003 39.9289C26.9003 37.2067 29.1063 35 31.8286 35C34.5508 35 36.7567 37.2067 36.7567 39.9289ZM34.843 39.9289C34.843 38.2636 33.4931 36.9145 31.8286 36.9145C30.1639 36.9145 28.8141 38.2635 28.8141 39.9289C28.8141 41.5936 30.1639 42.9434 31.8286 42.9434C33.4931 42.9434 34.843 41.5936 34.843 39.9289Z" fill="white"/>
<defs>
<linearGradient id="paint0_linear_355_8690" x1="19.5093" y1="75.4908" x2="60.4901" y2="4.5101" gradientUnits="userSpaceOnUse">
<stop stop-color="#0845BF"/>
<stop offset="0.6" stop-color="#0B5CFF"/>
<stop offset="1" stop-color="#4F90EE"/>
</linearGradient>
</defs>
</svg>
