<svg width="49" height="49" viewBox="0 0 49 49" fill="none" xmlns="http://www.w3.org/2000/svg">
<path d="M24.5 0C10.969 0 0 10.969 0 24.5C0 38.031 10.969 49 24.5 49C36.6398 49 46.7173 40.1707 48.6613 28.5833H48.4854C46.6722 35.628 40.2773 40.8333 32.6667 40.8333C23.646 40.8333 16.3333 33.5207 16.3333 24.5C16.3333 15.4793 23.646 8.16667 32.6667 8.16667C40.2773 8.16667 46.6722 13.372 48.4854 20.4167H48.6613C46.7173 8.82934 36.6398 0 24.5 0Z" fill="#7C9FFE"/>
<path d="M0 24.5C0 10.969 10.969 0 24.5 0C36.6397 0 46.7173 8.82934 48.6613 20.4167H32.1521C30.3389 13.372 23.944 8.16667 16.3333 8.16667C7.31268 8.16667 0 15.4793 0 24.5Z" fill="#0055EB"/>
<path d="M0 24.5C0 38.031 10.969 49 24.5 49C36.6397 49 46.7173 40.1707 48.6613 28.5833H32.1521C30.3389 35.628 23.944 40.8333 16.3333 40.8333C7.31268 40.8333 0 33.5207 0 24.5Z" fill="#0055EB"/>
</svg>
