<svg width="190" height="48" viewBox="0 0 190 48" fill="none" xmlns="http://www.w3.org/2000/svg">
<path d="M14.25 5C14.25 12.8701 7.87006 19.25 0 19.25V28.75H14.25V43H23.75C23.75 35.1299 30.1299 28.75 38 28.75V19.25H23.75V5H14.25Z" fill="#2563EB"/>
<path d="M47.7699 34V13.6364H52.0753V22.0384H60.8153V13.6364H65.1108V34H60.8153V25.5881H52.0753V34H47.7699ZM74.7012 34.2983C73.1302 34.2983 71.7779 33.9801 70.6444 33.3438C69.5175 32.7008 68.6491 31.7926 68.0393 30.6193C67.4294 29.4394 67.1245 28.044 67.1245 26.4332C67.1245 24.8622 67.4294 23.4834 68.0393 22.2969C68.6491 21.1103 69.5075 20.1856 70.6145 19.5227C71.7282 18.8598 73.0341 18.5284 74.5322 18.5284C75.5397 18.5284 76.4777 18.6908 77.3461 19.0156C78.2211 19.3338 78.9834 19.8144 79.633 20.4574C80.2893 21.1004 80.7997 21.9091 81.1643 22.8835C81.5288 23.8513 81.7111 24.9848 81.7111 26.2841V27.4474H68.8148V24.8224H77.7239C77.7239 24.2126 77.5913 23.6723 77.3262 23.2017C77.061 22.7311 76.6931 22.3632 76.2225 22.098C75.7585 21.8262 75.2182 21.6903 74.6018 21.6903C73.9588 21.6903 73.3887 21.8395 72.8915 22.1378C72.401 22.4295 72.0165 22.8239 71.7381 23.321C71.4597 23.8116 71.3172 24.3584 71.3106 24.9616V27.4574C71.3106 28.2131 71.4498 28.866 71.7282 29.4162C72.0132 29.9664 72.4143 30.3906 72.9313 30.6889C73.4484 30.9872 74.0615 31.1364 74.7708 31.1364C75.2414 31.1364 75.6723 31.0701 76.0634 30.9375C76.4545 30.8049 76.7893 30.6061 77.0677 30.3409C77.3461 30.0758 77.5582 29.7509 77.704 29.3665L81.6216 29.625C81.4228 30.5663 81.0151 31.3883 80.3986 32.0909C79.7888 32.7869 79 33.3305 78.0322 33.7216C77.071 34.1061 75.9607 34.2983 74.7012 34.2983ZM87.9905 34.2884C87.016 34.2884 86.1477 34.1193 85.3853 33.7812C84.623 33.4366 84.0198 32.9295 83.5757 32.2599C83.1382 31.5838 82.9194 30.742 82.9194 29.7344C82.9194 28.8859 83.0752 28.1733 83.3868 27.5966C83.6983 27.0199 84.1226 26.5559 84.6595 26.2045C85.1964 25.8532 85.8063 25.5881 86.489 25.4091C87.1784 25.2301 87.901 25.1042 88.6566 25.0312C89.5449 24.9384 90.2608 24.8523 90.8044 24.7727C91.3479 24.6866 91.7423 24.5606 91.9876 24.3949C92.2329 24.2292 92.3555 23.9839 92.3555 23.6591V23.5994C92.3555 22.9697 92.1566 22.4825 91.7589 22.1378C91.3678 21.7931 90.811 21.6207 90.0885 21.6207C89.3262 21.6207 88.7196 21.7898 88.2689 22.1278C87.8181 22.4593 87.5198 22.8769 87.374 23.3807L83.4564 23.0625C83.6552 22.1345 84.0463 21.3324 84.6297 20.6562C85.213 19.9735 85.9654 19.4498 86.8868 19.0852C87.8148 18.714 88.8887 18.5284 90.1084 18.5284C90.9568 18.5284 91.7689 18.6278 92.5444 18.8267C93.3266 19.0256 94.0193 19.3338 94.6226 19.7514C95.2324 20.169 95.713 20.706 96.0643 21.3622C96.4156 22.0118 96.5913 22.7907 96.5913 23.6989V34H92.5743V31.8821H92.4549C92.2097 32.3594 91.8816 32.7803 91.4706 33.1449C91.0596 33.5028 90.5657 33.7846 89.989 33.9901C89.4123 34.1889 88.7461 34.2884 87.9905 34.2884ZM89.2035 31.3651C89.8266 31.3651 90.3768 31.2424 90.8541 30.9972C91.3314 30.7453 91.7059 30.4072 91.9777 29.983C92.2495 29.5587 92.3853 29.0781 92.3853 28.5412V26.9205C92.2528 27.0066 92.0705 27.0862 91.8385 27.1591C91.6131 27.2254 91.3579 27.2884 91.0728 27.348C90.7878 27.401 90.5028 27.4508 90.2177 27.4972C89.9327 27.5369 89.6742 27.5734 89.4422 27.6065C88.945 27.6795 88.5108 27.7955 88.1396 27.9545C87.7684 28.1136 87.48 28.3291 87.2745 28.6009C87.0691 28.866 86.9663 29.1974 86.9663 29.5952C86.9663 30.1719 87.1751 30.6127 87.5927 30.9176C88.017 31.2159 88.5539 31.3651 89.2035 31.3651ZM103.273 13.6364V34H99.0375V13.6364H103.273ZM113.95 18.7273V21.9091H104.753V18.7273H113.95ZM106.841 15.0682H111.076V29.3068C111.076 29.6979 111.136 30.0028 111.255 30.2216C111.375 30.4337 111.54 30.5829 111.753 30.669C111.971 30.7552 112.223 30.7983 112.508 30.7983C112.707 30.7983 112.906 30.7817 113.105 30.7486C113.304 30.7088 113.456 30.679 113.562 30.6591L114.228 33.8111C114.016 33.8774 113.718 33.9536 113.334 34.0398C112.949 34.1326 112.482 34.1889 111.932 34.2088C110.911 34.2486 110.016 34.1127 109.247 33.8011C108.485 33.4896 107.891 33.0057 107.467 32.3494C107.043 31.6932 106.834 30.8646 106.841 29.8636V15.0682ZM120.433 25.1705V34H116.197V13.6364H120.314V21.4219H120.493C120.838 20.5204 121.394 19.8144 122.163 19.304C122.932 18.7869 123.897 18.5284 125.057 18.5284C126.117 18.5284 127.042 18.7604 127.831 19.2244C128.626 19.6818 129.243 20.3414 129.68 21.2031C130.124 22.0582 130.343 23.0824 130.337 24.2756V34H126.101V25.0312C126.107 24.09 125.869 23.3575 125.385 22.8338C124.908 22.3101 124.238 22.0483 123.376 22.0483C122.8 22.0483 122.289 22.1709 121.845 22.4162C121.408 22.6615 121.063 23.0194 120.811 23.4901C120.566 23.9541 120.44 24.5142 120.433 25.1705ZM132.91 34V13.6364H146.393V17.1861H137.215V22.0384H145.498V25.5881H137.215V34H132.91ZM148.369 34V18.7273H152.605V34H148.369ZM150.497 16.7585C149.867 16.7585 149.327 16.5497 148.876 16.1321C148.432 15.7079 148.21 15.2008 148.21 14.6108C148.21 14.0275 148.432 13.527 148.876 13.1094C149.327 12.6851 149.867 12.473 150.497 12.473C151.127 12.473 151.663 12.6851 152.108 13.1094C152.558 13.527 152.784 14.0275 152.784 14.6108C152.784 15.2008 152.558 15.7079 152.108 16.1321C151.663 16.5497 151.127 16.7585 150.497 16.7585ZM155.158 34V18.7273H159.264V21.392H159.423C159.702 20.4441 160.169 19.7282 160.825 19.2443C161.482 18.7538 162.237 18.5085 163.092 18.5085C163.305 18.5085 163.533 18.5218 163.779 18.5483C164.024 18.5748 164.239 18.6113 164.425 18.6577V22.4162C164.226 22.3565 163.951 22.3035 163.6 22.2571C163.248 22.2107 162.927 22.1875 162.635 22.1875C162.012 22.1875 161.455 22.3234 160.965 22.5952C160.481 22.8603 160.096 23.2315 159.811 23.7088C159.533 24.1861 159.394 24.7363 159.394 25.3594V34H155.158ZM178.482 23.0824L174.604 23.321C174.538 22.9896 174.396 22.6913 174.177 22.4261C173.958 22.1544 173.67 21.9389 173.312 21.7798C172.96 21.6141 172.54 21.5312 172.049 21.5312C171.393 21.5312 170.839 21.6705 170.389 21.9489C169.938 22.2206 169.712 22.5852 169.712 23.0426C169.712 23.4072 169.858 23.7154 170.15 23.9673C170.442 24.2192 170.942 24.4214 171.651 24.5739L174.416 25.1307C175.9 25.4356 177.007 25.9261 177.737 26.6023C178.466 27.2784 178.83 28.1667 178.83 29.267C178.83 30.268 178.535 31.1463 177.945 31.902C177.362 32.6577 176.56 33.2476 175.539 33.6719C174.525 34.0895 173.355 34.2983 172.029 34.2983C170.007 34.2983 168.397 33.8774 167.197 33.0355C166.004 32.187 165.304 31.0336 165.099 29.5753L169.265 29.3565C169.391 29.973 169.696 30.4437 170.18 30.7685C170.664 31.0866 171.283 31.2457 172.039 31.2457C172.782 31.2457 173.378 31.1032 173.829 30.8182C174.286 30.5265 174.518 30.152 174.525 29.6946C174.518 29.3101 174.356 28.9953 174.038 28.75C173.719 28.4981 173.229 28.3059 172.566 28.1733L169.921 27.6463C168.43 27.348 167.319 26.831 166.59 26.0952C165.868 25.3594 165.506 24.4214 165.506 23.2812C165.506 22.3002 165.772 21.455 166.302 20.7457C166.839 20.0365 167.591 19.4896 168.559 19.1051C169.533 18.7206 170.674 18.5284 171.979 18.5284C173.908 18.5284 175.426 18.9361 176.533 19.7514C177.647 20.5668 178.297 21.6771 178.482 23.0824ZM188.781 18.7273V21.9091H179.584V18.7273H188.781ZM181.672 15.0682H185.908V29.3068C185.908 29.6979 185.967 30.0028 186.087 30.2216C186.206 30.4337 186.372 30.5829 186.584 30.669C186.802 30.7552 187.054 30.7983 187.339 30.7983C187.538 30.7983 187.737 30.7817 187.936 30.7486C188.135 30.7088 188.287 30.679 188.393 30.6591L189.06 33.8111C188.847 33.8774 188.549 33.9536 188.165 34.0398C187.78 34.1326 187.313 34.1889 186.763 34.2088C185.742 34.2486 184.847 34.1127 184.078 33.8011C183.316 33.4896 182.722 33.0057 182.298 32.3494C181.874 31.6932 181.665 30.8646 181.672 29.8636V15.0682Z" fill="#171717"/>
</svg>
